<?xml version="1.0" encoding="UTF-8" standalone="no"?>
<!-- Created with Inkscape (http://www.inkscape.org/) -->

<svg
   width="300mm"
   height="300mm"
   viewBox="0 0 300 300"
   version="1.1"
   id="svg5"
   xmlns:xlink="http://www.w3.org/1999/xlink"
   xmlns="http://www.w3.org/2000/svg"
   xmlns:svg="http://www.w3.org/2000/svg">
  <g
     id="layer2"
     style="display:inline">
    <ellipse
       style="fill:currentColor;fill-opacity:1;stroke:none;stroke-width:1.35061;stroke-linecap:round;stroke-miterlimit:4;stroke-dasharray:none;stroke-opacity:1"
       id="ellipse16819"
       cx="347.23544"
       cy="181.06102"
       rx="14.099846"
       ry="28.750208"
       transform="matrix(0.95061032,0.3103869,-0.50720723,0.86182413,0,0)" />
    <ellipse
       style="fill:currentColor;fill-opacity:1;stroke:none;stroke-width:1.35061;stroke-linecap:round;stroke-miterlimit:4;stroke-dasharray:none;stroke-opacity:1"
       id="ellipse16827"
       cx="82.295303"
       cy="275.98267"
       rx="14.099846"
       ry="28.750208"
       transform="matrix(-0.95061032,0.3103869,0.50720723,0.86182413,0,0)" />
    <path
       style="opacity:1;fill:currentColor;fill-opacity:1;stroke:none;stroke-width:1.33478;stroke-linecap:round;stroke-miterlimit:4;stroke-dasharray:none;stroke-opacity:1"
       d="m 89.908143,278.68712 c -0.04897,-0.15633 -0.343913,-1.36351 -0.655775,-2.68265 -2.061277,-8.71848 -5.699741,-17.85471 -9.320574,-23.40421 -3.869319,-5.93028 -10.89823,-12.93177 -19.585028,-19.50863 l -2.219429,-1.68035 14.590757,-9.7269 c 11.712562,-7.80811 14.680573,-9.69945 15.045932,-9.58788 7.744171,2.36496 18.490174,13.28884 25.444154,25.86527 3.45957,6.2568 5.75491,13.43679 5.84166,18.27303 0.0281,1.56144 -0.0353,2.09453 -0.27652,2.32943 -0.17213,0.16756 -6.60093,4.73419 -14.2864,10.14812 -7.685463,5.41393 -14.089778,9.93699 -14.2318,10.05123 -0.178687,0.14368 -0.285557,0.12008 -0.346977,-0.0764 z"
       id="path16876" />
    <path
       style="opacity:1;fill:currentColor;fill-opacity:1;stroke:none;stroke-width:1.33478;stroke-linecap:round;stroke-miterlimit:4;stroke-dasharray:none;stroke-opacity:1"
       d="m 195.62435,269.2083 c -7.91307,-5.58383 -14.45636,-10.25728 -14.54065,-10.38549 -0.2567,-0.39047 -0.17596,-3.25141 0.1479,-5.2385 1.04704,-6.4238 4.05653,-13.38202 8.97528,-20.7517 6.77284,-10.14763 14.99022,-17.86077 21.36499,-20.05402 l 1.14607,-0.39432 14.57591,9.72131 c 8.01678,5.34668 14.49514,9.79111 14.39634,9.87651 -0.0989,0.0854 -1.39971,1.08464 -2.89092,2.22056 -7.56017,5.75903 -14.54526,12.6994 -18.21717,18.10058 -3.81446,5.6108 -7.28035,13.95608 -9.51848,22.91885 -0.5228,2.09359 -0.97337,3.88125 -1.00125,3.97256 -0.0279,0.0913 -6.52507,-4.40254 -14.43813,-9.98634 z"
       id="path16915" />
    <path
       style="opacity:1;fill:currentColor;fill-opacity:1;stroke:none;stroke-width:1.33478;stroke-linecap:round;stroke-miterlimit:4;stroke-dasharray:none;stroke-opacity:1"
       d="m 178.42138,235.28296 c -1.778,-1.24638 -3.26141,-2.3468 -3.29651,-2.4454 -0.0351,-0.0983 1.58386,-2.6804 3.59766,-5.73735 l 3.66148,-5.55808 v -4.15707 -4.15704 h 1.95615 1.95613 l 4.2485,2.4914 c 2.33669,1.37027 4.22817,2.58094 4.20334,2.69037 -0.0336,0.14702 -11.25983,16.5685 -12.86236,18.81451 -0.19838,0.27801 -0.69694,-0.001 -3.46439,-1.94134 z"
       id="path16954" />
    <path
       style="opacity:1;fill:currentColor;fill-opacity:1;stroke:none;stroke-width:1.33478;stroke-linecap:round;stroke-miterlimit:4;stroke-dasharray:none;stroke-opacity:1"
       d="m 111.73444,227.5275 c -3.58467,-5.21298 -6.514,-9.55402 -6.50967,-9.64678 0.005,-0.0925 1.91559,-1.27143 4.24724,-2.61926 l 4.23933,-2.45056 h 1.88097 c 1.77436,0 1.88812,0.0264 2.00675,0.46925 0.0693,0.2581 0.127,2.16869 0.12858,4.24574 l 0.004,3.77646 3.63523,5.49575 c 1.99939,3.02268 3.59359,5.56313 3.54272,5.64546 -0.12206,0.19774 -6.0327,4.32587 -6.38407,4.4589 -0.17529,0.0664 -2.60013,-3.28179 -6.78997,-9.37496 z"
       id="path16993" />
    <path
       id="path21652"
       style="display:inline;fill:currentColor;fill-opacity:1;stroke:none;stroke-width:1.40185;stroke-linecap:butt;stroke-linejoin:miter;stroke-miterlimit:4;stroke-dasharray:none;stroke-opacity:1"
       d="m 150.00026,12.484397 c -45.11107,0 -87.262835,36.346005 -84.232296,83.071848 3.03055,46.725925 41.713776,108.829905 41.713776,108.829905 l 8.3359,-0.81876 c 0,0 -4.46487,-31.84771 34.18262,-31.84771 38.64748,0 34.18344,31.84771 34.18344,31.84771 l 8.33586,0.81876 c 0,0 38.68302,-62.10398 41.71356,-108.829905 3.03051,-46.725843 -39.12182,-83.071848 -84.23286,-83.071848 z m 37.63607,67.84205 a 24.771858,24.875698 0 0 1 24.77217,24.875733 24.771858,24.875698 0 0 1 -24.77217,24.87562 24.771858,24.875698 0 0 1 -24.77136,-24.87562 24.771858,24.875698 0 0 1 24.77136,-24.875733 z m -75.9296,0.209384 a 24.771858,24.875698 0 0 1 24.77215,24.875709 24.771858,24.875698 0 0 1 -24.77215,24.87563 24.771858,24.875698 0 0 1 -24.771507,-24.87563 24.771858,24.875698 0 0 1 24.771507,-24.875709 z m 76.11781,55.173909 c 2.85025,0 3.36705,2.32265 3.36705,2.32265 l 5.15862,16.4909 c 0,0 3.43189,10.73103 -8.71388,10.73103 -12.14583,0 -8.71389,-10.73186 -8.71389,-10.73186 l 5.54721,-16.52507 c 0,0 0.50461,-2.28765 3.35489,-2.28765 z" />
    <path
       id="circle22175"
       style="display:inline;fill:currentColor;fill-opacity:1;stroke:none;stroke-width:1.33478;stroke-linecap:round;stroke-miterlimit:4;stroke-dasharray:none;stroke-opacity:1"
       d="m 149.67192,181.48207 a 26.054401,26.054401 0 0 0 -25.7237,26.38117 26.054401,26.054401 0 0 0 26.38116,25.72288 26.054401,26.054401 0 0 0 25.72372,-26.38118 26.054401,26.054401 0 0 0 -26.38118,-25.72287 z M 160.68,193.93699 c 0,0 1.93571,-0.029 1.96013,2.20697 0.0244,2.2358 -1.91128,2.26403 -1.91128,2.26403 l -21.69022,0.3169 c 0,0 -1.93571,0.0281 -1.96012,-2.20781 -0.0245,-2.23578 1.91124,-2.26401 1.91124,-2.26401 z m -1.65626,11.18727 c 0,0 1.61386,-0.0287 1.63424,2.22246 0.0204,2.25106 -1.59353,2.27949 -1.59353,2.27949 l -18.08685,0.31856 c 0,0 -1.61388,0.0276 -1.63426,-2.2233 -0.0204,-2.25105 1.59353,-2.27948 1.59353,-2.27948 z m 3.54796,11.23289 c 0,0 2.22373,-0.0276 2.25178,2.19558 0.0281,2.22326 -2.19558,2.25098 -2.19558,2.25098 l -24.91558,0.31448 c 0,0 -2.2237,0.0287 -2.25179,-2.19479 -0.0281,-2.22326 2.19558,-2.25179 2.19558,-2.25179 z" />
  </g>
</svg>
