<?xml version="1.0" encoding="UTF-8"?>
<svg width="18px" height="18px" viewBox="0 0 30 18" version="1.1" xmlns="http://www.w3.org/2000/svg" xmlns:xlink="http://www.w3.org/1999/xlink">
   <defs>
        <polygon id="path-1" points="0 18 166.355532 18 166.355532 0.22575 0 0.22575"></polygon>
        <path d="M21.1726829,0.22575 C17.9217073,0.22575 15.0892683,2.06175 13.6053659,4.77525 L13.6053659,4.77525 C13.5797561,4.8345 13.5431707,4.90275 13.4963415,4.98225 L13.4963415,4.98225 C13.3873171,5.19375 13.2856098,5.40975 13.1934146,5.631 L13.1934146,5.631 C13.0046341,6.15 12.857561,6.79725 12.7441463,7.422 L12.7441463,7.422 C12.63,8.0535 12.5509756,8.66175 12.5026829,9.09375 L12.5026829,9.09375 C12.5026829,9.09975 12.5026829,9.10575 12.5026829,9.11175 L12.5026829,9.11175 C12.5019512,9.11175 12.5012195,9.11175 12.5004878,9.11175 L12.5004878,9.11175 L12.5004878,9.11325 C12.4982927,9.13125 12.4960976,9.14925 12.4946341,9.16725 L12.4946341,9.16725 C12.4660976,11.307 10.764878,13.03425 8.67,13.03425 L8.67,13.03425 C6.55756098,13.03425 4.84463415,11.27925 4.84463415,9.11325 L4.84463415,9.11325 C4.84463415,6.94725 6.55756098,5.19225 8.67,5.19225 L8.67,5.19225 C9.7595122,5.19225 10.7414634,5.65875 11.4380488,6.40725 L11.4380488,6.40725 C11.8331707,4.90575 12.5656098,3.4725 13.6441463,2.232 L13.6441463,2.232 C13.715122,2.15025 13.7890244,2.073 13.8614634,1.995 L13.8614634,1.995 C12.4141463,0.88425 10.6178049,0.22575 8.67,0.22575 L8.67,0.22575 C3.88170732,0.22575 0,4.20525 0,9.11325 L0,9.11325 C0,14.02125 3.88170732,17.99625 8.67,18 L8.67,18 L8.67804878,18 C12.8780488,18 16.3668293,14.96175 17.1702439,10.85925 L17.1702439,10.85925 C17.2258537,10.57125 17.2704878,10.27875 17.2982927,9.981 L17.2982927,9.981 L17.2997561,9.981 C17.2997561,9.981 17.2997561,9.97125 17.3004878,9.954 L17.3004878,9.954 C17.3136585,9.81525 17.3231707,9.6735 17.3297561,9.5325 L17.3297561,9.5325 C17.3407317,9.4095 17.3553659,9.26625 17.3736585,9.11325 L17.3736585,9.11325 C17.43,8.637 17.5273171,8.0595 17.6912195,7.62225 L17.6912195,7.62225 C17.7534146,7.4835 17.8221951,7.347 17.897561,7.21575 L17.897561,7.21575 C17.9136585,7.19325 17.9268293,7.17 17.9378049,7.149 L17.9378049,7.149 C18.624878,6.00375 19.8212195,5.19225 21.1726829,5.19225 L21.1726829,5.19225 C23.285122,5.19225 24.9980488,6.94725 24.9980488,9.11325 L24.9980488,9.11325 C24.9980488,11.27925 23.285122,13.03425 21.1726829,13.03425 L21.1726829,13.03425 C20.0831707,13.03425 19.1012195,12.567 18.4046341,11.81925 L18.4046341,11.81925 C17.9619512,13.49775 17.1160976,15.006 15.9804878,16.2315 L15.9804878,16.2315 C17.4278049,17.3415 19.2256098,18 21.1726829,18 L21.1726829,18 C25.9609756,18 29.8419512,14.02125 29.8419512,9.11325 L29.8419512,9.11325 C29.8419512,4.20525 25.9609756,0.22575 21.1726829,0.22575 Z" id="path-3"></path>
        <linearGradient x1="0%" y1="50.0006895%" x2="100.001937%" y2="50.0006895%" id="linearGradient-5">
            <stop stop-color="#00BFAA" offset="0%"></stop>
            <stop stop-color="#00DBB1" offset="100%"></stop>
        </linearGradient>
    </defs>
    <g id="组件" stroke="none" stroke-width="1" fill="none" fill-rule="evenodd">
        <g id="编组">
            <mask id="mask-4" fill="white">
                <use xlink:href="#path-3"></use>
            </mask>
            <g id="Clip-19"></g>
            <path d="M21.1726829,0.22575 C17.9217073,0.22575 15.0892683,2.06175 13.6053659,4.77525 L13.6053659,4.77525 C13.5797561,4.8345 13.5431707,4.90275 13.4963415,4.98225 L13.4963415,4.98225 C13.3873171,5.19375 13.2856098,5.40975 13.1934146,5.631 L13.1934146,5.631 C13.0046341,6.15 12.857561,6.79725 12.7441463,7.422 L12.7441463,7.422 C12.63,8.0535 12.5509756,8.66175 12.5026829,9.09375 L12.5026829,9.09375 C12.5026829,9.09975 12.5026829,9.10575 12.5026829,9.11175 L12.5026829,9.11175 C12.5019512,9.11175 12.5012195,9.11175 12.5004878,9.11175 L12.5004878,9.11175 L12.5004878,9.11325 C12.4982927,9.13125 12.4960976,9.14925 12.4946341,9.16725 L12.4946341,9.16725 C12.4660976,11.307 10.764878,13.03425 8.67,13.03425 L8.67,13.03425 C6.55756098,13.03425 4.84463415,11.27925 4.84463415,9.11325 L4.84463415,9.11325 C4.84463415,6.94725 6.55756098,5.19225 8.67,5.19225 L8.67,5.19225 C9.7595122,5.19225 10.7414634,5.65875 11.4380488,6.40725 L11.4380488,6.40725 C11.8331707,4.90575 12.5656098,3.4725 13.6441463,2.232 L13.6441463,2.232 C13.715122,2.15025 13.7890244,2.073 13.8614634,1.995 L13.8614634,1.995 C12.4141463,0.88425 10.6178049,0.22575 8.67,0.22575 L8.67,0.22575 C3.88170732,0.22575 0,4.20525 0,9.11325 L0,9.11325 C0,14.02125 3.88170732,17.99625 8.67,18 L8.67,18 L8.67804878,18 C12.8780488,18 16.3668293,14.96175 17.1702439,10.85925 L17.1702439,10.85925 C17.2258537,10.57125 17.2704878,10.27875 17.2982927,9.981 L17.2982927,9.981 L17.2997561,9.981 C17.2997561,9.981 17.2997561,9.97125 17.3004878,9.954 L17.3004878,9.954 C17.3136585,9.81525 17.3231707,9.6735 17.3297561,9.5325 L17.3297561,9.5325 C17.3407317,9.4095 17.3553659,9.26625 17.3736585,9.11325 L17.3736585,9.11325 C17.43,8.637 17.5273171,8.0595 17.6912195,7.62225 L17.6912195,7.62225 C17.7534146,7.4835 17.8221951,7.347 17.897561,7.21575 L17.897561,7.21575 C17.9136585,7.19325 17.9268293,7.17 17.9378049,7.149 L17.9378049,7.149 C18.624878,6.00375 19.8212195,5.19225 21.1726829,5.19225 L21.1726829,5.19225 C23.285122,5.19225 24.9980488,6.94725 24.9980488,9.11325 L24.9980488,9.11325 C24.9980488,11.27925 23.285122,13.03425 21.1726829,13.03425 L21.1726829,13.03425 C20.0831707,13.03425 19.1012195,12.567 18.4046341,11.81925 L18.4046341,11.81925 C17.9619512,13.49775 17.1160976,15.006 15.9804878,16.2315 L15.9804878,16.2315 C17.4278049,17.3415 19.2256098,18 21.1726829,18 L21.1726829,18 C25.9609756,18 29.8419512,14.02125 29.8419512,9.11325 L29.8419512,9.11325 C29.8419512,4.20525 25.9609756,0.22575 21.1726829,0.22575 Z" id="Fill-18" fill="url(#linearGradient-5)" mask="url(#mask-4)"></path>
        </g>
    </g>
</svg>